<?xml version="1.0" encoding="UTF-8"?>
<svg version="1.1" xmlns="http://www.w3.org/2000/svg" width="1536" height="1024">
<path d="M0 0 C506.88 0 1013.76 0 1536 0 C1536 337.92 1536 675.84 1536 1024 C1029.12 1024 522.24 1024 0 1024 C0 686.08 0 348.16 0 0 Z " fill="#F9F9F9" transform="translate(0,0)"/>
<path d="M0 0 C1.74411083 -0.00107443 3.48822131 -0.00301549 5.23233032 -0.00575256 C9.95690414 -0.01058628 14.68138296 -0.00295711 19.4059453 0.00720048 C24.38556832 0.01603733 29.36518885 0.01422223 34.34481812 0.01383972 C42.72924363 0.0147759 51.11363295 0.02344227 59.49804688 0.03710938 C69.10938521 0.05272145 78.72068364 0.05811126 88.33203375 0.05737382 C98.64604222 0.05669 108.96003584 0.06368938 119.27403975 0.07282043 C122.20102085 0.07492335 125.12799945 0.07565774 128.05498123 0.07605934 C140.29162762 0.0795282 152.52708533 0.12465401 164.76318359 0.24291992 C165.53842093 0.24966217 166.31365828 0.25640441 167.11238766 0.26335096 C171.4923242 0.30339779 175.87087527 0.36539134 180.24992824 0.46274507 C182.14669802 0.5016401 184.04379733 0.52332211 185.94085121 0.54417896 C196.42815719 0.83279446 205.00761504 3.08903289 213.00927734 10.07104492 C217.97971654 16.22597631 219.35354849 21.91538612 219.27784729 29.70404053 C219.28479282 30.62529197 219.29173835 31.54654341 219.29889435 32.49571157 C219.3171128 35.5663202 219.30691416 38.63615171 219.29663086 41.70678711 C219.30369206 43.91507544 219.31243792 46.12335893 219.32273865 48.33163452 C219.34522339 54.3194583 219.34229434 60.30701762 219.33341718 66.29486752 C219.32830231 71.29960711 219.33560419 76.30429723 219.34288925 81.30903172 C219.36085772 93.79598251 219.35448079 106.28280625 219.33671945 118.76974335 C219.3220362 129.59266438 219.33663416 140.41530743 219.36548961 151.23819265 C219.3949495 162.37140989 219.40532908 173.50451595 219.39630741 184.6377728 C219.39138694 190.8800638 219.39354599 197.122139 219.41409492 203.36440277 C219.43250518 209.23819857 219.42642749 215.11148008 219.40189552 220.98524857 C219.39690409 223.13458884 219.40033376 225.28396864 219.41304398 227.43327713 C219.49368536 242.2480279 218.68568707 254.11764896 207.86865234 265.34057617 C199.91477129 272.52710692 191.14346408 275.70386124 180.52984619 275.64405823 C179.63309606 275.6508549 178.73634593 275.65765157 177.81242156 275.6646542 C174.82486045 275.68355702 171.83771173 275.68119383 168.85009766 275.67871094 C166.7009224 275.68769281 164.55175198 275.69790205 162.40258789 275.70924377 C156.57596946 275.73570507 150.74948327 275.74277564 144.92281055 275.74469113 C141.27898859 275.74682607 137.63520006 275.75323553 133.99138641 275.76118279 C121.2691383 275.78892412 108.54698439 275.8011899 95.82470703 275.79882812 C83.98216732 275.79702646 72.14003786 275.82867313 60.29760194 275.87605911 C50.11642608 275.91534007 39.93538401 275.93137752 29.75413299 275.9294619 C23.67945024 275.9286985 17.6051322 275.93716569 11.53052521 275.96899605 C5.81427046 275.99813187 0.09872673 275.99821446 -5.61755371 275.97644615 C-7.70885512 275.97331998 -9.80020152 275.98032983 -11.89142609 275.99852753 C-24.23048409 276.09889953 -34.40890036 276.03723412 -44.20925522 267.53092289 C-49.22407975 262.48181908 -52.15063611 255.47799563 -52.33837891 248.43041992 C-52.28810547 246.85260742 -52.28810547 246.85260742 -52.23681641 245.24291992 C-51.23606079 245.14587769 -51.23606079 245.14587769 -50.21508789 245.046875 C-18.03464717 241.84340466 11.61668508 234.46285934 40.76318359 220.24291992 C41.4639502 219.90744141 42.1647168 219.57196289 42.88671875 219.22631836 C61.4258213 210.27214796 78.85710631 198.27676438 94.76318359 185.24291992 C95.27284668 184.82800293 95.78250977 184.41308594 96.30761719 183.9855957 C110.74593857 172.1861089 124.64009823 159.42598268 136.76318359 145.24291992 C137.58818359 144.29545898 138.41318359 143.34799805 139.26318359 142.37182617 C146.22783543 134.31812411 152.57155914 125.9016133 158.76318359 117.24291992 C162.46319909 118.85619682 165.29339309 121.17365988 168.38818359 123.74291992 C169.34982422 124.53698242 170.31146484 125.33104492 171.30224609 126.14916992 C173.76318359 128.24291992 173.76318359 128.24291992 175.76318359 130.24291992 C178.71552994 115.16411949 181.33684363 100.06750766 183.57568359 84.86791992 C183.68641205 84.1239093 183.7971405 83.37989868 183.91122437 82.61334229 C184.22708528 80.48268737 184.5373131 78.3513006 184.84521484 76.21948242 C185.11168823 74.37990967 185.11168823 74.37990967 185.38354492 72.50317383 C185.70931803 69.7055056 185.84132672 67.05407735 185.76318359 64.24291992 C180.3322534 64.87197655 175.3580327 66.12675793 170.14599609 67.75463867 C169.33057343 68.00534622 168.51515076 68.25605377 167.67501831 68.51435852 C165.95134613 69.04561608 164.22846742 69.57945417 162.50634766 70.11572266 C159.93247618 70.91663734 157.35592801 71.70838686 154.77880859 72.4987793 C144.00930258 75.82008161 133.35940388 79.40529093 122.76318359 83.24291992 C123.52848389 84.18022949 124.29378418 85.11753906 125.08227539 86.08325195 C125.51275681 86.61048859 125.94323822 87.13772522 126.38676453 87.68093872 C128.54361052 90.12856022 131.02742241 92.09159175 133.57568359 94.11791992 C134.55150391 94.8990918 135.52732422 95.68026367 136.53271484 96.48510742 C137.26876953 97.06518555 138.00482422 97.64526367 138.76318359 98.24291992 C131.8397418 109.28537139 123.61198893 119.44985145 114.79443359 129.02807617 C112.98476372 131.00131237 111.24478468 133.01399805 109.51318359 135.05541992 C101.878184 143.78618334 93.58184521 151.88783531 84.48193359 159.07885742 C81.65229801 161.3311823 78.93526415 163.68895598 76.20068359 166.05541992 C41.41652965 194.98260193 -6.45651111 217.42286791 -52.23681641 217.24291992 C-52.28356507 193.66851315 -52.31881932 170.09411334 -52.34044075 146.51966953 C-52.35074739 135.5733186 -52.36479605 124.62699649 -52.38769531 113.68066406 C-52.40764789 104.13834725 -52.42053729 94.59605131 -52.4249934 85.05371422 C-52.4275976 80.00249931 -52.43370594 74.95134413 -52.44827652 69.90014839 C-52.46188991 65.14206069 -52.46603145 60.3840571 -52.46303177 55.62595177 C-52.46358025 53.88332792 -52.46753524 52.14070114 -52.47522736 50.39809418 C-52.53439891 36.29686775 -51.93328722 23.67300082 -41.90087891 12.68432617 C-29.27087939 0.85098816 -16.59389328 -0.05942874 0 0 Z " fill="#005EC2" transform="translate(337.23681640625,359.757080078125)"/>
<path d="M0 0 C1.14719513 -0.00956978 1.14719513 -0.00956978 2.31756592 -0.01933289 C3.12188049 -0.02044571 3.92619507 -0.02155853 4.75488281 -0.02270508 C5.60673157 -0.02603348 6.45858032 -0.02936188 7.33624268 -0.03279114 C9.1313829 -0.0378309 10.9265324 -0.04020038 12.72167969 -0.04003906 C15.43603359 -0.04221868 18.14997598 -0.06038709 20.86425781 -0.0793457 C35.09041151 -0.12751008 49.26955969 0.04454835 60.69238281 9.84838867 C66.32492912 16.03861283 68.24071614 22.38559849 68.08300781 30.58276367 C68.06995605 31.70763184 68.06995605 31.70763184 68.05664062 32.85522461 C67.85335119 40.49690783 66.31586269 46.53740879 60.70800781 52.14526367 C57.45800781 53.95776367 57.45800781 53.95776367 54.70800781 55.14526367 C55.68640625 55.53004883 55.68640625 55.53004883 56.68457031 55.92260742 C64.67512794 59.42289594 67.98820897 63.76193769 71.84082031 71.38745117 C73.04188937 75.20706718 73.09131186 78.78639833 73.08300781 82.77026367 C73.08139648 83.56843506 73.07978516 84.36660645 73.078125 85.18896484 C72.9017076 93.73742544 71.04211703 101.992129 64.70800781 108.14526367 C45.6887258 124.73655224 7.84375475 118.14526367 -11.29199219 118.14526367 C-11.29199219 79.53526367 -11.29199219 40.92526367 -11.29199219 1.14526367 C-3.41272626 0.01965425 -3.41272626 0.01965425 0 0 Z " fill="#025DC1" transform="translate(945.2919921875,437.854736328125)"/>
<path d="M0 0 C8.25 0 16.5 0 25 0 C25.33 16.5 25.66 33 26 50 C28.35125 46.90625 30.7025 43.8125 33.125 40.625 C37.3568649 35.06717105 41.59556853 29.51474434 45.86328125 23.984375 C46.46019775 23.21061523 47.05711426 22.43685547 47.67211914 21.63964844 C48.84595992 20.13383361 50.03135462 18.63695246 51.22827148 17.14941406 C53.74650897 14.01133016 56.08632721 11.02719656 57.921875 7.4375 C59.93020601 3.9540232 61.69517969 2.27810387 65 0 C68.14013672 -0.60180664 68.14013672 -0.60180664 71.5546875 -0.66015625 C72.77712158 -0.6844873 73.99955566 -0.70881836 75.2590332 -0.73388672 C80.8535036 -0.66565709 86.4209888 -0.41695338 92 0 C90.37246476 4.38728897 88.14434194 7.46722646 85.0625 10.9375 C81.07576666 15.53068087 77.22422573 20.19147202 73.5 25 C69.41670019 30.25778751 65.19455148 35.36964781 60.86791992 40.4284668 C57.1006504 44.84476873 53.50343618 49.37259453 50 54 C52.97563597 59.54484362 56.45357318 64.33949735 60.375 69.25 C65.45231947 75.68774637 70.4097669 82.19460311 75.25 88.8125 C80.08630757 95.4212904 84.99213334 101.96296852 90.01171875 108.43359375 C90.66785156 109.28050781 91.32398438 110.12742187 92 111 C92.58394531 111.73347656 93.16789063 112.46695313 93.76953125 113.22265625 C95 115 95 115 95 117 C71.67506703 119.83740607 71.67506703 119.83740607 64.4609375 115.45898438 C60.16562341 111.39291458 57.20912436 106.48449391 54.33935547 101.35058594 C52.45245677 98.03905465 50.21173787 95.050951 47.9375 92 C47.14868398 90.88930888 46.36359498 89.77596251 45.58203125 88.66015625 C42.46397065 84.227923 39.29513455 79.83256993 36.125 75.4375 C35.57706787 74.67501953 35.02913574 73.91253906 34.46459961 73.12695312 C33.94260986 72.40314453 33.42062012 71.67933594 32.8828125 70.93359375 C32.42277832 70.29478271 31.96274414 69.65597168 31.48876953 68.99780273 C29.7173583 66.62071875 27.85192593 64.31490742 26 62 C25.67 80.15 25.34 98.3 25 117 C16.75 117 8.5 117 0 117 C0 78.39 0 39.78 0 0 Z " fill="#015DC2" transform="translate(609,439)"/>
<path d="M0 0 C7.92 0 15.84 0 24 0 C24.33 16.17 24.66 32.34 25 49 C31.95123031 40.54100216 31.95123031 40.54100216 38.6875 31.9375 C39.51910711 30.84993596 40.35116693 29.762718 41.18359375 28.67578125 C41.8485083 27.80687256 41.8485083 27.80687256 42.52685547 26.92041016 C45.42235201 23.14580362 48.33497083 19.38453083 51.25 15.625 C52.11757935 14.50146118 52.11757935 14.50146118 53.00268555 13.35522461 C54.1237979 11.91057517 55.25860471 10.47643559 56.40771484 9.05395508 C58.0231786 7.04899591 58.0231786 7.04899591 59.26806641 4.9206543 C60.71161846 2.75258702 61.81118302 1.4298968 64 0 C68.65619575 -0.84423862 73.16317202 -0.66082101 77.875 -0.4375 C79.76605469 -0.39012695 79.76605469 -0.39012695 81.6953125 -0.34179688 C84.79926335 -0.25949515 87.8984281 -0.1445621 91 0 C89.2491945 3.00758776 87.46749776 5.81415167 85.25 8.49609375 C84.72978271 9.1298291 84.20956543 9.76356445 83.67358398 10.41650391 C83.12130127 11.08343262 82.56901855 11.75036133 82 12.4375 C77.74552454 17.61742924 73.5459486 22.82857537 69.4375 28.125 C65.11041828 33.68782095 60.59572467 39.06627549 55.97045898 44.38330078 C54.63889699 45.91521825 53.31892216 47.45718673 52 49 C51.3503125 49.68835938 50.700625 50.37671875 50.03125 51.0859375 C49.6909375 51.71757812 49.350625 52.34921875 49 53 C50.17133105 56.76507725 51.9772161 59.56226818 54.37890625 62.66015625 C55.04825195 63.53003174 55.71759766 64.39990723 56.40722656 65.29614258 C57.1184668 66.20904053 57.82970703 67.12193848 58.5625 68.0625 C60.02763536 69.96331693 61.49248137 71.86435693 62.95703125 73.765625 C63.66037598 74.67505859 64.3637207 75.58449219 65.08837891 76.52148438 C67.33441207 79.43358254 69.54864474 82.36650886 71.75 85.3125 C72.42289063 86.21226562 73.09578125 87.11203125 73.7890625 88.0390625 C74.51867187 89.01617188 75.24828125 89.99328125 76 91 C78.04028819 93.73020008 80.08210853 96.45924733 82.125 99.1875 C82.63611328 99.87054199 83.14722656 100.55358398 83.67382812 101.25732422 C87.01913745 105.71882138 90.41494323 110.13494067 93.890625 114.49609375 C95 116 95 116 95 117 C67.77699098 119.24336285 67.77699098 119.24336285 62.3046875 114.73828125 C60.20095697 111.89646221 58.5918435 109.2143971 57.06835938 106.04492188 C55.06057077 102.20186031 52.33893726 98.84029195 49.75 95.375 C48.64947525 93.848418 47.55186455 92.31973143 46.45703125 90.7890625 C42.24984078 84.94137043 37.96403953 79.15196944 33.66894531 73.36865234 C33.1169043 72.62309082 32.56486328 71.8775293 31.99609375 71.109375 C31.51325928 70.45936523 31.0304248 69.80935547 30.53295898 69.13964844 C28.62225868 66.47276239 26.81981038 63.72971556 25 61 C24.67 79.48 24.34 97.96 24 117 C16.08 117 8.16 117 0 117 C0 78.39 0 39.78 0 0 Z " fill="#015DC2" transform="translate(716,439)"/>
<path d="M0 0 C6.81678571 5.90694778 10.42879267 13.41354172 11.34484863 22.37265015 C11.46003885 26.13406123 11.45040708 29.8740491 11.390625 33.63671875 C11.38314438 35.01104398 11.37746008 36.38538004 11.37347412 37.75971985 C11.35836045 41.33884268 11.31920709 44.91729351 11.2746582 48.49615479 C11.23339283 52.16335973 11.21539711 55.83067559 11.1953125 59.49804688 C11.15269431 66.66570325 11.08246694 73.83267103 11 81 C4.73 81 -1.54 81 -8 81 C-8.66 79.35 -9.32 77.7 -10 76 C-10.78503906 76.40992188 -11.57007813 76.81984375 -12.37890625 77.2421875 C-23.24015729 82.81274325 -32.98973082 86.32000943 -45.26171875 83.16015625 C-53.57503206 80.06222143 -59.20173534 75.43521765 -62.9375 67.3125 C-65.44586262 59.20001078 -65.00234644 51.23549835 -61.4375 43.5625 C-56.86114875 35.48470791 -51.88305522 31.88531781 -43.20727539 28.8203125 C-37.4426851 27.3459254 -31.72333764 27.58430536 -25.8125 27.75 C-24.57435547 27.76804687 -23.33621094 27.78609375 -22.06054688 27.8046875 C-19.03952635 27.85134419 -16.0201969 27.91679017 -13 28 C-12.95746094 26.12054688 -12.95746094 26.12054688 -12.9140625 24.203125 C-12.89811035 23.49833008 -12.8821582 22.79353516 -12.86572266 22.06738281 C-13.10699777 18.3526234 -14.4644218 16.65632002 -17 14 C-24.96761213 9.46718886 -31.92583881 9.10542537 -40.625 11.3125 C-43.86611133 12.2449359 -46.43152534 13.22753154 -49.4375 14.8125 C-52 16 -52 16 -53.98828125 15.39453125 C-56.61095334 13.57648477 -57.42032482 11.75596289 -58.75 8.875 C-59.17796875 7.96492188 -59.6059375 7.05484375 -60.046875 6.1171875 C-60.51867188 5.06917969 -60.51867188 5.06917969 -61 4 C-54.95179723 -0.60875576 -49.43852279 -4.20592215 -42 -6 C-41.25492188 -6.18304688 -40.50984375 -6.36609375 -39.7421875 -6.5546875 C-26.83845497 -8.65016543 -10.97135622 -7.7249722 0 0 Z " fill="#025DC1" transform="translate(1094,475)"/>
<path d="M0 0 C7.26 0 14.52 0 22 0 C22.33 22.77 22.66 45.54 23 69 C26.63 64.38 30.26 59.76 34 55 C36.34607711 52.09658072 38.69475831 49.19790944 41.0625 46.3125 C42.15879089 44.97627583 43.25389518 43.63907699 44.34765625 42.30078125 C44.81179932 41.73528564 45.27594238 41.16979004 45.75415039 40.5871582 C46.91071998 39.11373886 47.96097416 37.55853877 49 36 C51.61376953 35.65942383 51.61376953 35.65942383 54.8828125 35.70703125 C56.04941406 35.71669922 57.21601562 35.72636719 58.41796875 35.73632812 C59.64128906 35.76146484 60.86460938 35.78660156 62.125 35.8125 C63.97158203 35.83280273 63.97158203 35.83280273 65.85546875 35.85351562 C68.90407843 35.88896457 71.951825 35.93837921 75 36 C71.09901955 41.34306564 67.0042716 46.41873199 62.625 51.375 C52.69409485 62.71199661 52.69409485 62.71199661 44 75 C44.51046875 75.6084375 45.0209375 76.216875 45.546875 76.84375 C50.63595867 82.97952464 55.49458653 89.24377372 60.24804688 95.64111328 C63.01743933 99.36568154 65.81271372 103.06597323 68.65625 106.734375 C69.25598633 107.50958496 69.85572266 108.28479492 70.47363281 109.08349609 C71.64101455 110.58941212 72.81213389 112.09243957 73.98730469 113.59228516 C74.51227539 114.27081543 75.03724609 114.9493457 75.578125 115.6484375 C76.04637695 116.24833496 76.51462891 116.84823242 76.99707031 117.46630859 C78 119 78 119 78 121 C55.19686587 123.51300832 55.19686587 123.51300832 48.83496094 119.70361328 C45.32656251 116.16727186 43.28496777 111.81516995 41.19091797 107.34472656 C39.10824883 103.24428491 36.33884543 99.63715276 33.625 95.9375 C32.65645965 94.57331147 31.69021186 93.2074916 30.7265625 91.83984375 C29.81790457 90.55975651 28.90905245 89.2798071 28 88 C27.52916992 87.33500488 27.05833984 86.67000977 26.57324219 85.98486328 C24.45042969 82.85868334 24.45042969 82.85868334 22 80 C22 93.53 22 107.06 22 121 C14.74 121 7.48 121 0 121 C0 81.07 0 41.14 0 0 Z " fill="#015CC1" transform="translate(1212,435)"/>
<path d="M0 0 C6.52817774 4.22148029 10.52721879 9.64838422 13 17 C13.64498971 22.0701349 13.58630243 27.09557137 13.48828125 32.1953125 C13.47893487 33.63832361 13.47182741 35.08135078 13.46684265 36.52438354 C13.44791556 40.28944092 13.39894346 44.0535061 13.34332275 47.81817627 C13.2918174 51.67291855 13.26926248 55.52782398 13.24414062 59.3828125 C13.19080592 66.92237586 13.10299288 74.4609215 13 82 C6.07 82 -0.86 82 -8 82 C-8.0093457 80.34025146 -8.01869141 78.68050293 -8.02832031 76.97045898 C-8.0682583 70.79961527 -8.1340293 64.62926808 -8.20751953 58.45874023 C-8.23790238 55.7903159 -8.25693082 53.12249713 -8.27099609 50.45385742 C-8.29245551 46.61333718 -8.33912536 42.77381437 -8.390625 38.93359375 C-8.39185364 37.74479111 -8.39308228 36.55598846 -8.39434814 35.3311615 C-8.51112567 28.6945537 -8.95661621 24.35939078 -13 19 C-18.07618128 15.16191171 -23.88811826 15.20467734 -30 16 C-34.54679958 17.4984606 -37.3231336 18.9847004 -40 23 C-40.32890385 25.6877973 -40.32890385 25.6877973 -40.31884766 28.7565918 C-40.33871735 29.93758957 -40.35858704 31.11858734 -40.37905884 32.33537292 C-40.39061005 33.61044205 -40.40216125 34.88551117 -40.4140625 36.19921875 C-40.43342865 37.50454056 -40.4527948 38.80986237 -40.4727478 40.15473938 C-40.52407634 43.62180522 -40.56369793 47.08890989 -40.60089111 50.55615234 C-40.64092641 54.09547536 -40.69202087 57.63463677 -40.7421875 61.17382812 C-40.83895522 68.11577395 -40.92233491 75.05781445 -41 82 C-48.26 82 -55.52 82 -63 82 C-63 53.95 -63 25.9 -63 -3 C-57.06 -3 -51.12 -3 -45 -3 C-43.68 -0.69 -42.36 1.62 -41 4 C-40.38125 3.4225 -39.7625 2.845 -39.125 2.25 C-27.58637544 -6.05780968 -12.55277996 -6.79018755 0 0 Z " fill="#015CC1" transform="translate(1183,474)"/>
<path d="M0 0 C1.6796875 1.37890625 1.6796875 1.37890625 2.54296875 3.2109375 C2.72570868 6.10867062 1.89358342 7.97720655 0.7421875 10.62890625 C0.36191406 11.5209375 -0.01835938 12.41296875 -0.41015625 13.33203125 C-0.71050781 14.0075 -1.01085937 14.68296875 -1.3203125 15.37890625 C-2.12855469 15.02957031 -2.93679688 14.68023437 -3.76953125 14.3203125 C-4.83816406 13.86527344 -5.90679688 13.41023438 -7.0078125 12.94140625 C-8.06355469 12.48894531 -9.11929688 12.03648437 -10.20703125 11.5703125 C-16.10857474 9.31187992 -22.03680339 8.63842538 -28.3203125 9.37890625 C-31.16105712 10.71712784 -31.16105712 10.71712784 -32.3203125 13.37890625 C-32.56317145 16.93015954 -32.56317145 16.93015954 -31.3203125 20.37890625 C-27.30091741 24.20431509 -22.49812957 26.50884719 -17.6328125 29.06640625 C-8.46855749 34.02864573 0.66050496 39.23876681 4.6796875 49.37890625 C5.65405301 57.21442892 6.00985693 65.71942425 1.41796875 72.484375 C-5.47177377 79.99342022 -13.75955751 83.7885121 -23.79296875 84.69140625 C-36.13880924 85.09995526 -47.23054483 82.64353897 -57.3203125 75.37890625 C-56.72411295 70.50994322 -55.75054428 66.05099674 -54.3203125 61.37890625 C-51.53760683 62.25765541 -48.82166441 63.13833079 -46.1875 64.40234375 C-38.44142909 68.006951 -29.73385229 69.08220878 -21.46484375 66.48046875 C-19.16850846 65.56802268 -19.16850846 65.56802268 -18.3203125 63.37890625 C-17.78995005 59.48958164 -18.02577552 57.82071172 -20.2265625 54.51953125 C-23.79394935 50.43998855 -28.4273929 48.30126072 -33.1953125 45.87890625 C-42.63806483 41.03897263 -51.82541618 36.0337008 -55.3203125 25.37890625 C-56.23443635 18.37864206 -56.44844754 11.22103452 -52.625 5.05078125 C-39.85593859 -11.3119681 -16.50787085 -8.90015101 0 0 Z " fill="#025CC1" transform="translate(884.3203125,474.62109375)"/>
<path d="M0 0 C3.444375 -0.061875 6.88875 -0.12375 10.4375 -0.1875 C11.50411865 -0.21481201 12.5707373 -0.24212402 13.66967773 -0.27026367 C19.85344273 -0.32346842 25.38995116 0.22416694 31 3 C35.45657369 7.45657369 36.16484617 11.16013592 36.25 17.3125 C36.20573268 22.28703985 36.039893 25.87443093 33 30 C28.92007657 33.6974306 25.39556254 34.12388079 20.01953125 34.09765625 C18.97128174 34.09515869 17.92303223 34.09266113 16.84301758 34.09008789 C15.51294678 34.08098389 14.18287598 34.07187988 12.8125 34.0625 C8.584375 34.041875 4.35625 34.02125 0 34 C0 22.78 0 11.56 0 0 Z " fill="#F8F9FA" transform="translate(958,503)"/>
<path d="M0 0 C5.754375 -0.12375 5.754375 -0.12375 11.625 -0.25 C12.82334473 -0.28641602 14.02168945 -0.32283203 15.25634766 -0.36035156 C21.48173196 -0.42516665 25.34118569 -0.30282518 30 4 C32.48706153 7.7305923 32.33096694 9.86075804 32.375 14.3125 C32.40335938 15.60800781 32.43171875 16.90351563 32.4609375 18.23828125 C31.92784751 22.58883771 30.80552572 24.66782296 28 28 C24.75824301 30.09221348 22.17409611 30.23589464 18.359375 30.1953125 C17.39483398 30.19031738 16.43029297 30.18532227 15.43652344 30.18017578 C14.2199707 30.16196777 13.00341797 30.14375977 11.75 30.125 C7.8725 30.08375 3.995 30.0425 0 30 C0 20.1 0 10.2 0 0 Z " fill="#F9F9FA" transform="translate(958,456)"/>
<path d="M0 0 C4.4859375 0.0928125 4.4859375 0.0928125 9.0625 0.1875 C9.0625 7.4475 9.0625 14.7075 9.0625 22.1875 C0.74343166 24.96052278 -6.50222973 27.17635905 -14.9375 23.9375 C-17.96329981 22.17245011 -19.14835907 21.12419487 -20.9375 18.1875 C-21.77916886 13.52419958 -21.60698728 9.44613608 -19.375 5.25 C-13.30925665 0.11744794 -7.62244921 -0.22428698 0 0 Z " fill="#F8F9FA" transform="translate(1072.9375,516.8125)"/>
<path d="M0 0 C6.27 0 12.54 0 19 0 C17.87390231 6.75658612 17.87390231 6.75658612 16.109375 10.05859375 C15.72910156 10.77466797 15.34882812 11.49074219 14.95703125 12.22851562 C14.55871094 12.95748047 14.16039062 13.68644531 13.75 14.4375 C13.17572266 15.52514648 13.17572266 15.52514648 12.58984375 16.63476562 C11.43516975 18.7838495 10.23400814 20.89556877 9 23 C8.41085815 24.02903442 8.41085815 24.02903442 7.80981445 25.07885742 C6.59765625 27.0078125 6.59765625 27.0078125 4 30 C0.88671875 30.68359375 0.88671875 30.68359375 -2.3125 30.4375 C-3.91544922 30.34275391 -3.91544922 30.34275391 -5.55078125 30.24609375 C-6.35902344 30.16488281 -7.16726563 30.08367187 -8 30 C-7.41998891 23.13789698 -5.59834522 17.02104577 -3.4375 10.5 C-3.10814453 9.48679687 -2.77878906 8.47359375 -2.43945312 7.4296875 C-1.63271934 4.95102717 -0.81724731 2.47521378 0 0 Z " fill="#0259C0" transform="translate(821,440)"/>
<path d="M0 0 C7.92 0 15.84 0 24 0 C24 0.33 24 0.66 24 1 C16.41 1 8.82 1 1 1 C1 38.62 1 76.24 1 115 C7.93 115 14.86 115 22 115 C22 96.85 22 78.7 22 60 C22.66 60.33 23.32 60.66 24 61 C24 79.48 24 97.96 24 117 C16.08 117 8.16 117 0 117 C0 78.39 0 39.78 0 0 Z " fill="#003DB6" transform="translate(716,439)"/>
<path d="M0 0 C2 2 2 2 2.24050903 4.32852173 C2.2338472 5.78746353 2.2338472 5.78746353 2.22705078 7.27587891 C2.22689972 8.3768692 2.22674866 9.4778595 2.22659302 10.61221313 C2.21627045 11.80494843 2.20594788 12.99768372 2.1953125 14.2265625 C2.1924826 15.44451508 2.18965271 16.66246765 2.18673706 17.91732788 C2.17551256 21.81998383 2.15040372 25.72241303 2.125 29.625 C2.11497314 32.26562169 2.10584678 34.90624697 2.09765625 37.546875 C2.07556578 44.03133781 2.04102034 50.51563042 2 57 C-5.59 57 -13.18 57 -21 57 C-21 56.34 -21 55.68 -21 55 C-14.07 55 -7.14 55 0 55 C0 36.85 0 18.7 0 0 Z " fill="#0150BD" transform="translate(632,499)"/>
<path d="M0 0 C0.66 0 1.32 0 2 0 C2 18.48 2 36.96 2 56 C-4.27 56 -10.54 56 -17 56 C-17.33 54.35 -17.66 52.7 -18 51 C-17.67 51.99 -17.34 52.98 -17 54 C-11.39 54 -5.78 54 0 54 C0 36.18 0 18.36 0 0 Z " fill="#004CBB" transform="translate(1103,500)"/>
<path d="M0 0 C4.50513431 4.23209586 8.514292 8.88695859 12 14 C12 14.66 12 15.32 12 16 C3.09 16 -5.82 16 -15 16 C-15 15.34 -15 14.68 -15 14 C-7.41 13.67 0.18 13.34 8 13 C6.68 11.22625 5.36 9.4525 4 7.625 C0 2.25 0 2.25 0 0 Z " fill="#0850BC" transform="translate(1278,540)"/>
<path d="M0 0 C4.875 4.75 4.875 4.75 6 7 C1.92512506 7.12366555 -2.14902301 7.21436476 -6.2253418 7.2746582 C-7.61160304 7.29979219 -8.99773187 7.33390592 -10.38354492 7.37719727 C-12.37621037 7.43788396 -14.36984533 7.46354879 -16.36328125 7.48828125 C-17.56251221 7.51446533 -18.76174316 7.54064941 -19.99731445 7.56762695 C-23 7 -23 7 -24.91479492 4.46948242 C-25.2729126 3.65455322 -25.63103027 2.83962402 -26 2 C-25.34 2 -24.68 2 -24 2 C-23.01 3.485 -23.01 3.485 -22 5 C-19.48103926 5.41678607 -19.48103926 5.41678607 -16.5546875 5.29296875 C-15.47832031 5.28330078 -14.40195312 5.27363281 -13.29296875 5.26367188 C-12.16503906 5.23853516 -11.03710938 5.21339844 -9.875 5.1875 C-8.73933594 5.17396484 -7.60367188 5.16042969 -6.43359375 5.14648438 C-3.62192613 5.11104319 -0.81119583 5.06163517 2 5 C1.34 3.35 0.68 1.7 0 0 Z " fill="#044DBA" transform="translate(805,549)"/>
<path d="M0 0 C0.99 0.66 1.98 1.32 3 2 C3 2.66 3 3.32 3 4 C-6.24 4 -15.48 4 -25 4 C-25 3.01 -25 2.02 -25 1 C-16.75 1.33 -8.5 1.66 0 2 C0 1.34 0 0.68 0 0 Z " fill="#014DBB" transform="translate(701,552)"/>
<path d="M0 0 C0 0.66 0 1.32 0 2 C-2.64 2.66 -5.28 3.32 -8 4 C-8.33 5.65 -8.66 7.3 -9 9 C-10.32 8.34 -11.64 7.68 -13 7 C-13 6.01 -13 5.02 -13 4 C-11.2097939 3.32942113 -9.41778511 2.6636531 -7.625 2 C-6.62726563 1.62875 -5.62953125 1.2575 -4.6015625 0.875 C-2 0 -2 0 0 0 Z " fill="#E8F1F8" transform="translate(473,438)"/>
<path d="M0 0 C0.99 0.33 1.98 0.66 3 1 C-0.96 4.465 -0.96 4.465 -5 8 C-5.66 7.67 -6.32 7.34 -7 7 C-4.69 4.69 -2.38 2.38 0 0 Z " fill="#0749BA" transform="translate(447,532)"/>
<path d="M0 0 C0.33 0 0.66 0 1 0 C0.67 2.31 0.34 4.62 0 7 C-1.32 6.67 -2.64 6.34 -4 6 C-2.69593116 3.98079663 -1.36176581 1.98075027 0 0 Z " fill="#EDF4F9" transform="translate(1259,504)"/>
</svg>
