<?xml version="1.0" encoding="UTF-8"?>
<svg version="1.1" xmlns="http://www.w3.org/2000/svg" width="1031" height="371">
<path d="M0 0 C340.23 0 680.46 0 1031 0 C1031 122.43 1031 244.86 1031 371 C690.77 371 350.54 371 0 371 C0 248.57 0 126.14 0 0 Z " fill="#F9F9FA" transform="translate(0,0)"/>
<path d="M0 0 C60.06 0 120.12 0 182 0 C182 0.66 182 1.32 182 2 C182.88147705 1.97905273 183.7629541 1.95810547 184.67114258 1.93652344 C187.9943319 1.86766711 191.31674516 1.81787538 194.64038086 1.78027344 C196.06888924 1.76036391 197.49731838 1.73322571 198.92553711 1.69824219 C209.0656687 1.45638707 218.76156308 1.65321192 226.9375 8.4375 C227.618125 9.283125 228.29875 10.12875 229 11 C229.70125 11.78375 230.4025 12.5675 231.125 13.375 C235.84750883 19.98651236 236.43845784 25.4671377 236.39440918 33.39039612 C236.40050028 34.42372147 236.40659139 35.45704682 236.41286707 36.52168506 C236.42949008 39.97754106 236.42472205 43.43302831 236.41992188 46.88891602 C236.4272628 49.3696684 236.4358491 51.85041737 236.44558716 54.3311615 C236.4655064 60.3675192 236.47118348 66.40373246 236.46939927 72.44011021 C236.46808965 77.35116235 236.47190599 82.26218461 236.47932434 87.17323112 C236.48142366 88.59002254 236.48352126 90.00681396 236.48561716 91.42360538 C236.48718245 92.48154466 236.48718245 92.48154466 236.48877937 93.56085645 C236.50767227 106.89334815 236.50663514 120.2257848 236.49981004 133.55828433 C236.4942416 145.73140397 236.51503175 157.90431268 236.54817051 170.07738305 C236.58198334 182.59596774 236.59706599 195.11445164 236.59245348 207.63308281 C236.59021562 214.65345703 236.59535049 221.6736366 236.62034607 228.69397163 C236.64367512 235.302284 236.6406844 241.91023324 236.62041855 248.51857948 C236.61701872 250.93638196 236.62205294 253.35421418 236.63640213 255.77197647 C236.72712007 272.19861714 236.32358234 285.98088268 224.99609375 299 C222.46721993 301.53382269 220.17068266 303.33916623 217 305 C216.34 305 215.68 305 215 305 C215 305.66 215 306.32 215 307 C209.00068114 309.58889815 204.23078593 310.43347238 197.73301697 310.38095093 C196.83273901 310.3856309 195.93246105 310.39031087 195.00490195 310.39513266 C192.00563832 310.40704347 189.00683492 310.39764074 186.00756836 310.38818359 C183.85028315 310.392251 181.69300002 310.39759383 179.53572083 310.40411377 C173.68875147 310.41777216 167.84194121 310.41249495 161.99496913 310.40297651 C155.87233859 310.3953733 149.74972154 310.40242728 143.62709045 310.40713501 C133.34699054 310.4125902 123.06695532 310.40540666 112.78686523 310.39111328 C100.90458206 310.37478293 89.02245329 310.38007909 77.14017385 310.3965925 C66.93360477 310.41020886 56.72708215 310.4121264 46.52050692 310.40427649 C40.42654264 310.39960138 34.33265093 310.39897082 28.23869133 310.40888596 C22.51029548 310.41755561 16.78209865 310.41153351 11.05372429 310.39420319 C8.95227387 310.39023856 6.85080668 310.39137196 4.74936295 310.39799118 C1.87934944 310.40619743 -0.99002758 310.39589599 -3.86000061 310.38095093 C-4.69016239 310.38764309 -5.52032416 310.39433526 -6.37564236 310.40123022 C-11.64293447 310.34808356 -15.28719604 309.37541499 -20 307 C-20 306.34 -20 305.68 -20 305 C-21.11375 304.62875 -21.11375 304.62875 -22.25 304.25 C-28.77344602 301.28479726 -31.36144694 295.36587707 -34 289 C-35.21004618 284.65116737 -35.07595269 280.48120891 -35 276 C-34.26998779 275.91959473 -33.53997559 275.83918945 -32.7878418 275.75634766 C-29.42060964 275.38318668 -26.05406555 275.00412595 -22.6875 274.625 C-20.96563477 274.43550781 -20.96563477 274.43550781 -19.20898438 274.2421875 C-12.85178325 273.52182477 -6.58949298 272.64071799 -0.31567383 271.38037109 C2 271 2 271 6 271 C6 270.34 6 269.68 6 269 C9.93557529 267.82677153 13.87375727 266.66254629 17.8125 265.5 C18.93205078 265.16613281 20.05160156 264.83226562 21.20507812 264.48828125 C22.27822266 264.17246094 23.35136719 263.85664063 24.45703125 263.53125 C25.9416687 263.09135742 25.9416687 263.09135742 27.45629883 262.64257812 C30 262 30 262 33 262 C33 261.34 33 260.68 33 260 C35.7899439 258.82905995 38.58178597 257.66309073 41.375 256.5 C42.1690625 256.16613281 42.963125 255.83226562 43.78125 255.48828125 C44.92207031 255.01455078 44.92207031 255.01455078 46.0859375 254.53125 C46.7876709 254.23798828 47.4894043 253.94472656 48.21240234 253.64257812 C50 253 50 253 52 253 C52 252.34 52 251.68 52 251 C54.28929053 249.82845707 56.58118362 248.66261926 58.875 247.5 C59.85146484 246.99919922 59.85146484 246.99919922 60.84765625 246.48828125 C65.7734375 244 65.7734375 244 68 244 C68.33 243.01 68.66 242.02 69 241 C71.36328125 239.53515625 71.36328125 239.53515625 74.3125 238.0625 C78.24641663 236.09291557 80.95648349 234.15647176 84 231 C85.30511204 230.12312785 86.63877899 229.2869559 88 228.5 C91.12380199 226.61306252 93.45437144 224.62774561 96 222 C97.13351364 221.17039943 98.28072001 220.35933771 99.4375 219.5625 C102.64520255 217.33283895 105.26999739 214.80184478 108 212 C112.64864865 208 112.64864865 208 115 208 C115.20625 207.443125 115.4125 206.88625 115.625 206.3125 C117.15811063 203.73408667 119.02297109 202.26240121 121.35546875 200.41796875 C123.64752984 198.44167854 125.5038849 196.18652987 127.41015625 193.84375 C129.48648682 191.43581873 131.74682651 189.24350322 134 187 C136.22952276 184.68631163 138.42946591 182.34591314 140.625 180 C141.19734375 179.39671875 141.7696875 178.7934375 142.359375 178.171875 C145.37471903 174.94615813 147.82434284 171.86932258 150 168 C150.86540649 166.93292061 151.7608101 165.88931387 152.6875 164.875 C156.09715213 160.99768984 159.07342603 156.84889283 162.0703125 152.6484375 C163.37452176 150.85844989 164.72553233 149.10178562 166.1171875 147.37890625 C168.02193283 144.97228819 169.50167714 142.46422708 170.984375 139.78125 C172.51886806 137.08998525 174.25333211 134.55762085 176 132 C177.32 132.66 178.64 133.32 180 134 C180 134.66 180 135.32 180 136 C180.804375 136.3403125 180.804375 136.3403125 181.625 136.6875 C186.32782559 139.28642993 189.89116917 142.66424187 193 147 C195.54495584 131.96979024 197.76332056 116.90329827 199.83905029 101.80187988 C200.11248293 99.81284325 200.38725806 97.82399069 200.66339111 95.83532715 C201.05605817 93.00148038 201.44299034 90.16691043 201.828125 87.33203125 C201.94668854 86.47976456 202.06525208 85.62749786 202.18740845 84.74940491 C202.76219604 80.46276427 203.13145985 76.33773693 203 72 C200.69 72 198.38 72 196 72 C196 72.66 196 73.32 196 74 C192.23124981 75.17347102 188.45967916 76.33760333 184.6875 77.5 C183.61564453 77.83386719 182.54378906 78.16773437 181.43945312 78.51171875 C180.41142578 78.82753906 179.38339844 79.14335938 178.32421875 79.46875 C177.37635498 79.76201172 176.42849121 80.05527344 175.4519043 80.35742188 C173 81 173 81 170 81 C170 81.66 170 82.32 170 83 C166.39809458 84.17372973 162.79312849 85.33776256 159.1875 86.5 C158.16333984 86.83386719 157.13917969 87.16773437 156.08398438 87.51171875 C155.10107422 87.82753906 154.11816406 88.14335938 153.10546875 88.46875 C152.19949951 88.76201172 151.29353027 89.05527344 150.36010742 89.35742188 C148 90 148 90 145 90 C145 90.66 145 91.32 145 92 C142.525 92.99 142.525 92.99 140 94 C143.29758675 99.04942972 146.73215883 102.72819484 151.42578125 106.51953125 C151.94527344 107.00808594 152.46476563 107.49664062 153 108 C153 108.66 153 109.32 153 110 C153.99 110.33 154.98 110.66 156 111 C151.98370582 117.91449913 147.67023507 124.51135425 143 131 C142.39414063 131.85207031 141.78828125 132.70414063 141.1640625 133.58203125 C130.50274929 148.4425964 118.96822634 162.09919945 106 175 C105.278125 175.763125 104.55625 176.52625 103.8125 177.3125 C102 179 102 179 100 179 C99.79375 179.556875 99.5875 180.11375 99.375 180.6875 C97.42316968 183.97012371 95.05769006 185.70673246 92 188 C91.34 188 90.68 188 90 188 C89.814375 188.556875 89.62875 189.11375 89.4375 189.6875 C87.35889174 193.03134807 84.39186398 195.04807828 81 197 C80.34 197 79.68 197 79 197 C78.7525 197.60328125 78.505 198.2065625 78.25 198.828125 C76.79440027 201.35722953 75.48875791 202.26772507 73 203.75 C72.29875 204.17796875 71.5975 204.6059375 70.875 205.046875 C69 206 69 206 67 206 C66.67 206.99 66.34 207.98 66 209 C63.6015625 210.5 63.6015625 210.5 60.625 212 C56.80726363 213.84860911 56.80726363 213.84860911 53.55859375 216.48828125 C51.19345502 218.78228799 48.42390067 219.83611199 45.4375 221.1875 C44.28121094 221.71730469 43.12492187 222.24710938 41.93359375 222.79296875 C39 224 39 224 37 224 C37 224.66 37 225.32 37 226 C34.06574629 227.17495143 31.12710487 228.33850852 28.1875 229.5 C27.35412109 229.83386719 26.52074219 230.16773438 25.66210938 230.51171875 C24.45844727 230.98544922 24.45844727 230.98544922 23.23046875 231.46875 C22.49207764 231.76201172 21.75368652 232.05527344 20.99291992 232.35742188 C19 233 19 233 16 233 C16 233.66 16 234.32 16 235 C-8.26755448 242.53329298 -8.26755448 242.53329298 -20 242 C-20 242.66 -20 243.32 -20 244 C-20.99 244.165 -21.98 244.33 -23 244.5 C-23.556875 244.5928125 -24.11375 244.685625 -24.6875 244.78125 C-28.12654846 245.10656539 -31.54589301 245.01224861 -35 245 C-35.04674719 218.44403521 -35.08200219 191.8880766 -35.10362434 165.33207893 C-35.11393129 153.00131987 -35.12798056 140.67058639 -35.15087891 128.33984375 C-35.17083053 117.59077591 -35.18372066 106.8417266 -35.18817699 96.09264076 C-35.19078135 90.40255875 -35.19689073 84.71252975 -35.21146011 79.02246475 C-35.22507198 73.66274773 -35.22921534 68.30310539 -35.22621536 62.94337273 C-35.22676391 60.98024909 -35.2307198 59.01712286 -35.23841095 57.05401421 C-35.3014846 40.11900573 -34.20128056 23.50614544 -21.78515625 10.4609375 C-15.14185612 5.0241886 -8.53754684 2.27991957 0 2 C0 1.34 0 0.68 0 0 Z " fill="#005EC2" transform="translate(53,29)"/>
<path d="M0 0 C1.14719513 -0.00956978 1.14719513 -0.00956978 2.31756592 -0.01933289 C3.12188049 -0.02044571 3.92619507 -0.02155853 4.75488281 -0.02270508 C5.60673157 -0.02603348 6.45858032 -0.02936188 7.33624268 -0.03279114 C9.1313829 -0.0378309 10.9265324 -0.04020038 12.72167969 -0.04003906 C15.43603359 -0.04221868 18.14997598 -0.06038709 20.86425781 -0.0793457 C29.66302381 -0.1069442 38.11684529 -0.03966455 46.70800781 2.14526367 C46.70800781 2.80526367 46.70800781 3.46526367 46.70800781 4.14526367 C47.44019531 4.25741211 48.17238281 4.36956055 48.92675781 4.48510742 C55.08752209 5.94742366 60.22439602 9.85624514 63.64550781 15.14526367 C67.31442437 21.45737818 68.04877882 27.30519949 68.02050781 34.45776367 C68.03662109 35.26149414 68.05273438 36.06522461 68.06933594 36.89331055 C68.07595449 45.12017746 66.05445074 52.72953216 60.70800781 59.14526367 C57.45800781 61.02026367 57.45800781 61.02026367 54.70800781 62.14526367 C56.35800781 62.80526367 58.00800781 63.46526367 59.70800781 64.14526367 C59.70800781 64.80526367 59.70800781 65.46526367 59.70800781 66.14526367 C60.45050781 66.37213867 61.19300781 66.59901367 61.95800781 66.83276367 C66.79504866 69.14135135 68.81383677 72.89799375 70.95800781 77.64526367 C74.70984701 88.60301626 74.63701331 103.46844143 69.83691406 114.05541992 C69.464375 114.74506836 69.09183594 115.4347168 68.70800781 116.14526367 C68.10988281 117.25901367 67.51175781 118.37276367 66.89550781 119.52026367 C64.2499452 122.69493881 61.38283402 125.21832464 57.70800781 127.14526367 C56.71800781 127.14526367 55.72800781 127.14526367 54.70800781 127.14526367 C54.70800781 127.80526367 54.70800781 128.46526367 54.70800781 129.14526367 C53.18930083 129.63112768 51.66790082 130.10857569 50.14550781 130.58276367 C49.29859375 130.84959961 48.45167969 131.11643555 47.57910156 131.39135742 C28.5904283 136.37749884 8.34041262 133.14526367 -11.29199219 133.14526367 C-11.29199219 89.58526367 -11.29199219 46.02526367 -11.29199219 1.14526367 C-3.41272626 0.01965425 -3.41272626 0.01965425 0 0 Z " fill="#025DC1" transform="translate(678.2919921875,116.854736328125)"/>
<path d="M0 0 C8.25 0 16.5 0 25 0 C25.33 18.81 25.66 37.62 26 57 C28.97 52.545 28.97 52.545 32 48 C35.125 43.3125 35.125 43.3125 36.63671875 41.046875 C37.74136206 39.38832746 38.84030726 37.72598576 39.9375 36.0625 C41.72077595 33.4146054 43.53900346 30.79887364 45.375 28.1875 C47.61009667 25.00806313 49.80191932 21.80951368 51.9375 18.5625 C54.90997902 14.06772714 58.07451451 9.724207 61.265625 5.3828125 C62.55075346 3.61720808 63.78865439 1.81701842 65 0 C67.70556641 -0.34057617 67.70556641 -0.34057617 71.1015625 -0.29296875 C72.31328125 -0.28330078 73.525 -0.27363281 74.7734375 -0.26367188 C76.04445313 -0.23853516 77.31546875 -0.21339844 78.625 -0.1875 C79.90375 -0.17396484 81.1825 -0.16042969 82.5 -0.14648438 C85.66708282 -0.11103196 88.83333541 -0.06161441 92 0 C91.19145973 3.90244438 89.54790959 5.92752079 87 9 C86.53722656 9.77214844 86.07445312 10.54429687 85.59765625 11.33984375 C83.96648522 14.05580333 82.18979854 16.57370178 80.3125 19.125 C79.60867188 20.0840625 78.90484375 21.043125 78.1796875 22.03125 C77.46039063 23.0109375 76.74109375 23.990625 76 25 C74.64545727 26.87472834 73.29128198 28.74972223 71.9375 30.625 C68.90238528 34.80724469 65.77190191 38.89543847 62.54296875 42.9296875 C60.93985766 45.00465795 60.93985766 45.00465795 59.5703125 47.4140625 C57.21129227 51.2988172 54.29591205 54.74399759 51.44921875 58.28125 C49.66180102 60.90879109 49.66180102 60.90879109 50.65234375 63.6953125 C52.20818297 66.35602304 54.0609026 68.60464439 56 71 C56.91590243 72.63554006 57.8307278 74.27171957 58.734375 75.9140625 C60.34079836 78.56168619 62.15848631 81.01054631 64 83.5 C66.16767558 86.43273755 68.27031515 89.28772814 70 92.5 C72.28244353 96.73736154 75.2242669 100.50199289 78.09765625 104.3515625 C79.88106812 106.83442338 81.43886608 109.37445659 83 112 C83.639375 112.78375 84.27875 113.5675 84.9375 114.375 C86.90367367 116.87740285 88.45214711 119.44179912 89.984375 122.2265625 C90.99370312 123.98900468 92.09392112 125.64351289 93.25 127.3125 C95 130 95 130 95 132 C90.50167618 132.32137305 86.00630841 132.51538405 81.5 132.6875 C80.2315625 132.77966797 78.963125 132.87183594 77.65625 132.96679688 C68.38408841 133.23240567 68.38408841 133.23240567 64.44921875 129.72875977 C62.38022445 126.90908327 60.65636052 124.07750296 59 121 C58.25762967 119.82976032 57.50927607 118.6632485 56.75 117.50390625 C56.1725 116.53324219 55.595 115.56257813 55 114.5625 C51.78310882 109.24298327 48.41043378 104.06138607 44.9375 98.90625 C43.05912615 96.08868923 41.24084069 93.2410236 39.4375 90.375 C36.61880873 85.91153465 33.65027882 81.58146434 30.578125 77.2890625 C28.9495747 74.92685835 27.47618009 72.46030015 26 70 C25.67 90.46 25.34 110.92 25 132 C16.75 132 8.5 132 0 132 C0 88.44 0 44.88 0 0 Z " fill="#015DC2" transform="translate(342,118)"/>
<path d="M0 0 C7.92 0 15.84 0 24 0 C24.33 18.48 24.66 36.96 25 56 C28.85924039 50.85434615 31.90013582 46.45148528 35 41 C36 40 37 39 38 38 C38.9331863 36.36692397 39.86353367 34.7320994 40.7734375 33.0859375 C44.15283317 27.33881238 48.22510747 21.99395035 52.25 16.6875 C53.79297464 14.65320975 55.18411067 12.69314889 56.5 10.5 C56.995 9.675 57.49 8.85 58 8 C58.32049316 7.34773438 58.64098633 6.69546875 58.97119141 6.0234375 C60.44179166 3.5066576 61.71688107 1.83270771 64 0 C68.65537133 -1.00241749 73.14032814 -0.75646139 77.875 -0.5 C79.13570312 -0.46390625 80.39640625 -0.4278125 81.6953125 -0.390625 C84.79999216 -0.2965438 87.89842636 -0.16521392 91 0 C89.40463814 4.2345309 87.40542561 7.34881113 84.625 10.9375 C81.58836039 14.87294431 78.75173605 18.8616048 76 23 C73.7659339 26.0207091 71.49286784 29.00937928 69.21875 32 C67.04350031 34.94118268 65.02791058 37.95614987 63 41 C61.53474906 42.98949099 60.0553307 44.9686193 58.5625 46.9375 C57.78390625 47.98035156 57.0053125 49.02320313 56.203125 50.09765625 C54.91285893 51.79742166 53.59964196 53.4809611 52.234375 55.12109375 C50.62213287 57.01719106 50.62213287 57.01719106 49 60 C49.66115902 64.72256445 52.0211892 67.40790462 55 71 C55.91590243 72.63554006 56.8307278 74.27171957 57.734375 75.9140625 C59.34079836 78.56168619 61.15848631 81.01054631 63 83.5 C65.16767558 86.43273755 67.27031515 89.28772814 69 92.5 C71.2643983 96.68813491 74.16301245 100.40986133 76.984375 104.234375 C79.78373227 108.07535358 82.39050256 112.02902564 85 116 C85.7734375 117.1446875 85.7734375 117.1446875 86.5625 118.3125 C87.3359375 119.4571875 87.3359375 119.4571875 88.125 120.625 C88.58132813 121.29789062 89.03765625 121.97078125 89.5078125 122.6640625 C91.4561399 125.71406193 93.22166202 128.8478387 95 132 C91.01763976 132.27420913 87.03899406 132.47247272 83.04931641 132.60424805 C81.03482031 132.68608545 79.02295083 132.82595153 77.01171875 132.96679688 C67.38972587 133.23273135 67.38972587 133.23273135 63.38500977 129.68041992 C61.32399149 126.86903893 59.62877848 124.07881726 58 121 C56.98435661 119.30937129 55.96441091 117.62130846 54.9375 115.9375 C54.46441406 115.12539062 53.99132812 114.31328125 53.50390625 113.4765625 C51.36893987 109.96079969 48.971196 106.64951752 46.5859375 103.30078125 C44.92035749 100.88445951 43.50037354 98.41447578 42.09375 95.84375 C40.6852625 93.4694425 39.09930224 91.24986586 37.5 89 C34.72985706 85.09822421 32.32216091 81.17988964 30 77 C28.35 74.36 26.7 71.72 25 69 C24.67 89.79 24.34 110.58 24 132 C16.08 132 8.16 132 0 132 C0 88.44 0 44.88 0 0 Z " fill="#015DC2" transform="translate(449,118)"/>
<path d="M0 0 C0 0.66 0 1.32 0 2 C1.0209375 2.061875 1.0209375 2.061875 2.0625 2.125 C8.88454382 4.15709816 12.6534881 9.44014555 15.95703125 15.4609375 C19.54382697 24.1928372 19.26089788 32.81623069 19.1953125 42.09375 C19.19157684 43.65173154 19.18873248 45.20971545 19.18673706 46.7677002 C19.17914408 50.84475323 19.15953344 54.92166108 19.1373291 58.99865723 C19.11677669 63.16835568 19.10771535 67.33807786 19.09765625 71.5078125 C19.07628294 79.67194121 19.04220011 87.83595249 19 96 C15.87517438 96.08687496 12.75065754 96.14034568 9.625 96.1875 C8.73554687 96.21263672 7.84609375 96.23777344 6.9296875 96.26367188 C5.65351562 96.27817383 5.65351562 96.27817383 4.3515625 96.29296875 C3.56604004 96.3086792 2.78051758 96.32438965 1.97119141 96.34057617 C1.32069824 96.22818604 0.67020508 96.1157959 0 96 C-2 93 -2 93 -2 90 C-2.66 90 -3.32 90 -4 90 C-4.495 91.485 -4.495 91.485 -5 93 C-7.58203125 94.3515625 -7.58203125 94.3515625 -10.8125 95.625 C-11.87082031 96.05039063 -12.92914062 96.47578125 -14.01953125 96.9140625 C-22.69758751 100.0759231 -31.63742401 100.2648106 -40.375 97.0625 C-47.68778397 93.6331231 -51.89639173 88.26852011 -54.9375 80.875 C-58.02901242 69.73388921 -56.57256732 58.99966246 -51 49 C-47.65730635 43.19803888 -42.14461533 40.25802124 -36 38 C-34.68 38 -33.36 38 -32 38 C-32 37.34 -32 36.68 -32 36 C-23.09 36 -14.18 36 -5 36 C-4.66849383 27.20802383 -4.66849383 27.20802383 -9 21 C-9.66 20.67 -10.32 20.34 -11 20 C-11 19.34 -11 18.68 -11 18 C-20.59360402 15.25897028 -28.32242664 16.00755843 -38 18 C-38 18.66 -38 19.32 -38 20 C-40.75 21.625 -40.75 21.625 -44 23 C-46.84163248 22.14421879 -47.85715681 21.20601003 -49.5546875 18.7578125 C-49.99039063 17.88898438 -50.42609375 17.02015625 -50.875 16.125 C-51.55175781 14.82949219 -51.55175781 14.82949219 -52.2421875 13.5078125 C-53 11 -53 11 -52.3828125 8.8515625 C-50.78783246 6.71591126 -49.28570257 5.61133756 -47 4.25 C-46.29875 3.82203125 -45.5975 3.3940625 -44.875 2.953125 C-43 2 -43 2 -41 2 C-41 1.34 -41 0.68 -41 0 C-27.30839538 -4.4319645 -13.69160462 -4.4319645 0 0 Z " fill="#025DC1" transform="translate(819,154)"/>
<path d="M0 0 C7.26 0 14.52 0 22 0 C22.33 25.74 22.66 51.48 23 78 C24.32 76.02 25.64 74.04 27 72 C28.16119145 70.32951405 29.32761778 68.66265114 30.5 67 C32.3466243 64.37256205 34.16915352 61.74354144 35.9375 59.0625 C38.54757669 55.18693158 41.32089602 51.44101402 44.09765625 47.68359375 C46.04702724 45.09923069 46.04702724 45.09923069 47.24511719 42.36279297 C49 40 49 40 51.72729492 39.43237305 C52.80084229 39.45855713 53.87438965 39.48474121 54.98046875 39.51171875 C56.14384766 39.52783203 57.30722656 39.54394531 58.50585938 39.56054688 C60.32827148 39.62338867 60.32827148 39.62338867 62.1875 39.6875 C63.41404297 39.71005859 64.64058594 39.73261719 65.90429688 39.75585938 C68.93741559 39.81486947 71.96810222 39.89715408 75 40 C73.19430508 43.79297949 70.83708429 46.96051612 68.25 50.25 C67.34604965 51.4125237 66.44240287 52.5752835 65.5390625 53.73828125 C65.10239258 54.29854004 64.66572266 54.85879883 64.21582031 55.43603516 C62.6697816 57.42477492 61.14198552 59.42652176 59.625 61.4375 C58.99464844 62.27087891 58.99464844 62.27087891 58.3515625 63.12109375 C57.24223469 64.66325178 56.18049899 66.23953815 55.1328125 67.82421875 C52.9378667 71.09251717 50.62311864 74.23410768 48.25 77.375 C47.63318359 78.19291016 47.63318359 78.19291016 47.00390625 79.02734375 C46.0040885 80.35268356 45.00225841 81.67650492 44 83 C51.41254664 94.80607594 59.04380165 106.42306596 67.32421875 117.640625 C68.74201968 119.63678295 70.00051137 121.61247465 71.1875 123.75 C72.60280124 126.28778153 74.03642416 128.48795562 75.75 130.8125 C78 134 78 134 78 136 C73.62641047 136.29121422 69.25530741 136.46824053 64.875 136.625 C63.6375 136.70878906 62.4 136.79257813 61.125 136.87890625 C57.50403316 136.97624407 54.50369582 136.93441353 51 136 C48.04091323 133.05235836 46.59582521 129.81829484 45 126 C41.69754504 120.6876493 38.30859845 115.43690677 34.8125 110.25 C32.35239593 106.58587674 30.16673459 102.84420653 28 99 C25.3383124 94.24538823 25.3383124 94.24538823 22 90 C22 105.18 22 120.36 22 136 C14.74 136 7.48 136 0 136 C0 91.12 0 46.24 0 0 Z " fill="#025CC1" transform="translate(945,114)"/>
<path d="M0 0 C1.31871094 -0.00257813 2.63742187 -0.00515625 3.99609375 -0.0078125 C6.76488454 0.0952969 8.95327114 0.28417433 11.5625 1.125 C11.5625 1.785 11.5625 2.445 11.5625 3.125 C12.26375 3.2075 12.965 3.29 13.6875 3.375 C19.88364419 4.99138544 23.42025519 8.82001783 27.16796875 13.734375 C32.31782694 22.56270332 31.95597013 30.97956744 31.85546875 40.875 C31.84986579 42.50024014 31.845599 44.12548538 31.84260559 45.75073242 C31.83121184 50.00541444 31.80179255 54.25978382 31.76849365 58.51434326 C31.73767409 62.86498792 31.72407497 67.21568364 31.70898438 71.56640625 C31.67691686 80.08609618 31.62419444 88.60547305 31.5625 97.125 C24.6325 97.125 17.7025 97.125 10.5625 97.125 C10.5531543 95.2584375 10.54380859 93.391875 10.53417969 91.46875 C10.49855279 85.27794648 10.44469206 79.08750779 10.37859726 72.8969574 C10.33921162 69.14629453 10.30697997 65.3958633 10.29150391 61.64501953 C10.27627781 58.02020046 10.24172906 54.39601857 10.19419098 50.77148438 C10.17943801 49.39377403 10.1714625 48.01597267 10.17061615 46.63818359 C10.16091261 38.75710764 9.96865727 32.80013564 5.5625 26.125 C1.19856495 22.71900191 -3.31514328 22.61595226 -8.67578125 22.76953125 C-12.73179193 23.29159203 -16.24269859 24.53072517 -19.4375 27.125 C-21.67161915 30.59194389 -21.7097565 33.5687343 -21.75634766 37.63769531 C-21.76639328 38.28201508 -21.7764389 38.92633484 -21.78678894 39.59017944 C-21.81757823 41.71115256 -21.83464378 43.8319997 -21.8515625 45.953125 C-21.87027762 47.42715536 -21.8898513 48.90117505 -21.9102478 50.37518311 C-21.96153885 54.24830834 -22.00118062 58.12146829 -22.03839111 61.99475098 C-22.07844983 65.94971281 -22.12953363 69.90453058 -22.1796875 73.859375 C-22.27641099 81.61449192 -22.35980769 89.36966479 -22.4375 97.125 C-29.6975 97.125 -36.9575 97.125 -44.4375 97.125 C-44.4375 65.445 -44.4375 33.765 -44.4375 1.125 C-38.4975 1.125 -32.5575 1.125 -26.4375 1.125 C-25.1175 3.765 -23.7975 6.405 -22.4375 9.125 C-21.695 8.50625 -20.9525 7.8875 -20.1875 7.25 C-16.77904155 4.61619119 -14.77345861 3.125 -10.4375 3.125 C-10.4375 2.465 -10.4375 1.805 -10.4375 1.125 C-6.89615331 -0.0554489 -3.68304786 -0.02118724 0 0 Z " fill="#005CC1" transform="translate(897.4375,152.875)"/>
<path d="M0 0 C0 0.66 0 1.32 0 2 C0.7425 2.268125 1.485 2.53625 2.25 2.8125 C4.86636554 3.94229421 6.80187111 5.20893202 9 7 C8.43179252 12.45479185 7.05362055 16.91059256 5 22 C3.68 21.34 2.36 20.68 1 20 C1 19.34 1 18.68 1 18 C-10.35075497 14.80766753 -10.35075497 14.80766753 -22 15 C-24.28264769 16.22081273 -24.28264769 16.22081273 -26 18 C-26.61169817 22.05250036 -26.27597952 24.40004453 -24.5625 28.125 C-21.21903976 31.87619929 -17.48456387 33.83437727 -13 36 C-13 36.66 -13 37.32 -13 38 C-12.175 38.226875 -11.35 38.45375 -10.5 38.6875 C-1.51297571 42.05763411 5.20932758 47.63432773 9.66796875 56.20703125 C11.35787191 60.38084148 11.53596659 64.34885696 11.5 68.8125 C11.49645508 69.60205078 11.49291016 70.39160156 11.48925781 71.20507812 C11.31061878 77.50663456 10.19134884 83.05862031 6 88 C4.66864488 88.6706085 3.33553352 89.33775197 2 90 C1.505 91.485 1.505 91.485 1 93 C-0.6015625 94.09765625 -0.6015625 94.09765625 -2.625 95.0625 C-3.27726563 95.38347656 -3.92953125 95.70445312 -4.6015625 96.03515625 C-17.39487259 101.1816507 -30.34321426 99.88937847 -43 95 C-44.69454658 94.04800754 -46.36878561 93.05684313 -48 92 C-48.61875 91.608125 -49.2375 91.21625 -49.875 90.8125 C-51.80710807 87.69965922 -50.73190385 84.39901108 -50 81 C-49.40418773 78.63453636 -48.72816903 76.3301409 -48 74 C-45.21729433 74.87874916 -42.50135191 75.75942454 -39.8671875 77.0234375 C-32.12111659 80.62804475 -23.41353979 81.70330253 -15.14453125 79.1015625 C-12.84819596 78.18911643 -12.84819596 78.18911643 -12 76 C-11.8578012 72.16063232 -11.82245324 68.67983361 -13 65 C-13.66 65 -14.32 65 -15 65 C-15.515625 64.443125 -16.03125 63.88625 -16.5625 63.3125 C-19.95509599 60.09388329 -23.87454345 58.15087905 -28 56 C-28 55.34 -28 54.68 -28 54 C-28.66 53.773125 -29.32 53.54625 -30 53.3125 C-38.99317892 49.37798422 -43.77602192 44.5255089 -48.13671875 35.69921875 C-50.53858336 28.18931628 -50.22224949 18.4590391 -46.875 11.3125 C-44.48412026 7.27320745 -41.89787735 4.5985849 -38 2 C-37.34 2 -36.68 2 -36 2 C-36 1.34 -36 0.68 -36 0 C-23.48055983 -4.21496182 -12.58156035 -3.80847232 0 0 Z " fill="#025CC1" transform="translate(611,154)"/>
<path d="M0 0 C7.26 0 14.52 0 22 0 C22 0.66 22 1.32 22 2 C23.051875 2.0825 24.10375 2.165 25.1875 2.25 C29.38653624 3.07603992 31.08266635 3.91596157 34 7 C37.4398679 13.55212933 36.74345302 22.4887976 35.1875 29.5625 C33.5511811 34.2992126 33.5511811 34.2992126 31 36 C30.34 36 29.68 36 29 36 C29 36.66 29 37.32 29 38 C25.76248322 39.07917226 23.42248229 39.11425601 20.01953125 39.09765625 C18.97128174 39.09515869 17.92303223 39.09266113 16.84301758 39.09008789 C15.51294678 39.08098389 14.18287598 39.07187988 12.8125 39.0625 C8.584375 39.041875 4.35625 39.02125 0 39 C0 26.13 0 13.26 0 0 Z " fill="#F8F9FA" transform="translate(691,190)"/>
<path d="M0 0 C7.92 0 15.84 0 24 0 C24 0.66 24 1.32 24 2 C24.763125 2.2475 25.52625 2.495 26.3125 2.75 C29.45072123 4.20963778 30.3288945 4.98526789 32 8 C32.29468341 10.88327492 32.41946734 13.49944528 32.375 16.375 C32.38660156 17.1175 32.39820313 17.86 32.41015625 18.625 C32.38461254 23.44424596 31.77100143 26.89794985 29 31 C25.32028074 33.69011441 22.78795022 34.36558209 18.26171875 34.29296875 C17.29967529 34.28547607 16.33763184 34.2779834 15.34643555 34.27026367 C14.13898682 34.24295166 12.93153809 34.21563965 11.6875 34.1875 C5.9021875 34.0946875 5.9021875 34.0946875 0 34 C0 22.78 0 11.56 0 0 Z " fill="#F9F9FA" transform="translate(691,137)"/>
<path d="M0 0 C3.031875 0.04125 6.06375 0.0825 9.1875 0.125 C9.1875 8.375 9.1875 16.625 9.1875 25.125 C0.85747335 27.90167555 -6.34514213 30.06363424 -14.8125 26.9375 C-18.29615401 24.83279237 -19.45299608 23.9635993 -20.8125 20.125 C-21.45118184 14.82394076 -21.68843627 10.61409166 -18.9375 5.9375 C-16.8125 4.125 -16.8125 4.125 -14.8125 4.125 C-14.8125 3.465 -14.8125 2.805 -14.8125 2.125 C-9.96885354 -0.4221764 -5.31686055 -0.10229084 0 0 Z " fill="#F8F9FA" transform="translate(805.8125,205.875)"/>
<path d="M0 0 C6.27 0 12.54 0 19 0 C18.2082332 5.54236757 17.656683 8.32851382 15.34765625 13.08203125 C14.55391602 14.72655273 14.55391602 14.72655273 13.74414062 16.40429688 C13.18919922 17.52900391 12.63425781 18.65371094 12.0625 19.8125 C11.51142578 20.95654297 10.96035156 22.10058594 10.39257812 23.27929688 C6.28883749 31.71116251 6.28883749 31.71116251 4 34 C1.1796875 34.1953125 1.1796875 34.1953125 -2.125 34.125 C-3.22070312 34.10695312 -4.31640625 34.08890625 -5.4453125 34.0703125 C-6.28835938 34.04710937 -7.13140625 34.02390625 -8 34 C-7.42209354 26.32442541 -5.58682691 19.31330898 -3.4375 11.9375 C-3.10814453 10.78572266 -2.77878906 9.63394531 -2.43945312 8.44726562 C-1.63275158 5.62965589 -0.8172688 2.81456279 0 0 Z " fill="#0258C0" transform="translate(554,119)"/>
<path d="M0 0 C7.92 0 15.84 0 24 0 C24 0.33 24 0.66 24 1 C16.41 1 8.82 1 1 1 C1 43.57 1 86.14 1 130 C7.93 130 14.86 130 22 130 C22 109.54 22 89.08 22 68 C22.66 68.33 23.32 68.66 24 69 C24 89.79 24 110.58 24 132 C16.08 132 8.16 132 0 132 C0 88.44 0 44.88 0 0 Z " fill="#003DB6" transform="translate(449,118)"/>
<path d="M0 0 C5.94 0 11.88 0 18 0 C18.33 1.65 18.66 3.3 19 5 C18.34 4.34 17.68 3.68 17 3 C12.05 2.67 7.1 2.34 2 2 C2 33.02 2 64.04 2 96 C1.34 96 0.68 96 0 96 C0 64.32 0 32.64 0 0 Z " fill="#1455BE" transform="translate(853,154)"/>
<path d="M0 0 C2 2 2 2 2.24050903 4.89797974 C2.2338472 6.75663162 2.2338472 6.75663162 2.22705078 8.65283203 C2.22734283 9.33587402 2.22763489 10.01891602 2.22793579 10.72265625 C2.22654039 12.98450341 2.21096967 15.24602276 2.1953125 17.5078125 C2.19158311 19.07436951 2.18873579 20.64092884 2.18673706 22.20748901 C2.17909476 26.33394797 2.15944124 30.46026651 2.1373291 34.58666992 C2.11688346 38.79604187 2.1077381 43.00543648 2.09765625 47.21484375 C2.07619582 55.47663418 2.0410089 63.73828345 2 72 C-4.27 72 -10.54 72 -17 72 C-17.33 70.68 -17.66 69.36 -18 68 C-17.67 68.66 -17.34 69.32 -17 70 C-11.39 70 -5.78 70 0 70 C0 46.9 0 23.8 0 0 Z " fill="#024EBC" transform="translate(836,178)"/>
<path d="M0 0 C0.66 0 1.32 0 2 0 C2 21.12 2 42.24 2 64 C-5.59 64 -13.18 64 -21 64 C-21 63.34 -21 62.68 -21 62 C-14.07 62 -7.14 62 0 62 C0 41.54 0 21.08 0 0 Z " fill="#0150BD" transform="translate(365,186)"/>
<path d="M0 0 C10.23 0 20.46 0 31 0 C31 0.66 31 1.32 31 2 C38.59 2 46.18 2 54 2 C54 2.33 54 2.66 54 3 C47.273934 3.02540029 40.54788043 3.04288805 33.82177734 3.05493164 C31.53466327 3.05995364 29.24755239 3.06677247 26.96044922 3.07543945 C23.66893727 3.08759845 20.37746785 3.09324973 17.0859375 3.09765625 C15.55747696 3.10539818 15.55747696 3.10539818 13.99813843 3.11329651 C9.21605739 3.11367254 4.70136471 3.0064403 0 2 C0 1.34 0 0.68 0 0 Z " fill="#1756C0" transform="translate(204,29)"/>
<path d="M0 0 C8.91 0 17.82 0 27 0 C27 0.66 27 1.32 27 2 C27.66 2.33 28.32 2.66 29 3 C18.77 3 8.54 3 -2 3 C-1.34 2.67 -0.68 2.34 0 2 C0 1.34 0 0.68 0 0 Z " fill="#195FC1" transform="translate(787,190)"/>
<path d="M0 0 C0.33 0 0.66 0 1 0 C1 3.96 1 7.92 1 12 C2.71896484 11.7834375 2.71896484 11.7834375 4.47265625 11.5625 C6.00257715 11.37477964 7.53252661 11.18729203 9.0625 11 C10.19075195 10.85691406 10.19075195 10.85691406 11.34179688 10.7109375 C15.93421317 10.15428098 20.3742135 9.90170972 25 10 C21.36576791 12.32590854 18.22911669 12.16265833 14 12 C14 12.66 14 13.32 14 14 C9.38 14.33 4.76 14.66 0 15 C0 10.05 0 5.1 0 0 Z " fill="#0341B8" transform="translate(19,259)"/>
<path d="M0 0 C0.99 0.66 1.98 1.32 3 2 C3 2.66 3 3.32 3 4 C-6.24 4 -15.48 4 -25 4 C-25 3.01 -25 2.02 -25 1 C-16.75 1.33 -8.5 1.66 0 2 C0 1.34 0 0.68 0 0 Z " fill="#014DBB" transform="translate(434,246)"/>
<path d="M0 0 C8.25 0 16.5 0 25 0 C23 4 23 4 20 6 C20.33 5.01 20.66 4.02 21 3 C14.07 2.67 7.14 2.34 0 2 C0 1.34 0 0.68 0 0 Z " fill="#012BB2" transform="translate(995,154)"/>
<path d="M0 0 C1.74991334 -0.02715383 3.49994945 -0.04646551 5.25 -0.0625 C6.71179688 -0.07990234 6.71179688 -0.07990234 8.203125 -0.09765625 C10.65758678 -0.01195577 12.66168914 0.29293934 15 1 C15 1.66 15 2.32 15 3 C15.804375 3.12375 16.60875 3.2475 17.4375 3.375 C18.283125 3.58125 19.12875 3.7875 20 4 C20.33 4.66 20.66 5.32 21 6 C20.05125 5.690625 19.1025 5.38125 18.125 5.0625 C13.49061575 3.72071729 8.79447959 3.36657993 4 3 C4 2.34 4 1.68 4 1 C2.68 0.67 1.36 0.34 0 0 Z " fill="#0347B8" transform="translate(894,153)"/>
<path d="M0 0 C5.28 0 10.56 0 16 0 C16 0.66 16 1.32 16 2 C10.99691568 3.66769477 5.00308432 3.66769477 0 2 C0 1.34 0 0.68 0 0 Z " fill="#044BBB" transform="translate(579,235)"/>
<path d="M0 0 C0 5.2 0 5.2 -1 8 C-2.71812917 9.47328521 -4.49129997 10.68202682 -6.40625 11.88671875 C-8.16061772 12.92360931 -8.16061772 12.92360931 -9 15 C-9.66 15 -10.32 15 -11 15 C-9.46401812 11.54404076 -7.41603323 8.89923988 -5 6 C-4.54753906 5.45472656 -4.09507812 4.90945312 -3.62890625 4.34765625 C-2.42277725 2.89551794 -1.21179089 1.4474169 0 0 Z " fill="#064DBA" transform="translate(214,184)"/>
<path d="M0 0 C0.99 0.66 1.98 1.32 3 2 C3 2.66 3 3.32 3 4 C-5.25 3.67 -13.5 3.34 -22 3 C-22 2.67 -22 2.34 -22 2 C-14.74 2 -7.48 2 0 2 C0 1.34 0 0.68 0 0 Z " fill="#024CBC" transform="translate(1020,246)"/>
<path d="M0 0 C-1.26839526 0.50615298 -2.53983102 1.00469099 -3.8125 1.5 C-4.87404297 1.91765625 -4.87404297 1.91765625 -5.95703125 2.34375 C-8 3 -8 3 -11 3 C-11 3.66 -11 4.32 -11 5 C-14.3 5.66 -17.6 6.32 -21 7 C-20.34 6.34 -19.68 5.68 -19 5 C-18.01 5 -17.02 5 -16 5 C-16 4.34 -16 3.68 -16 3 C-13.89936424 2.30178583 -11.79434263 1.61675528 -9.6875 0.9375 C-8.51574219 0.55464844 -7.34398437 0.17179687 -6.13671875 -0.22265625 C-3 -1 -3 -1 0 0 Z " fill="#0B45B9" transform="translate(234,107)"/>
<path d="M0 0 C0.33 0 0.66 0 1 0 C0.52060632 4.71403788 0.03165952 8.66579301 -2 13 C-3.32 12.34 -4.64 11.68 -6 11 C-6 10.34 -6 9.68 -6 9 C-6.99 8.67 -7.98 8.34 -9 8 C-8.34 7.67 -7.68 7.34 -7 7 C-4.375 7.9375 -4.375 7.9375 -2 9 C-1.34 6.03 -0.68 3.06 0 0 Z " fill="#0542B7" transform="translate(618,163)"/>
<path d="M0 0 C0.99 0 1.98 0 3 0 C3 0.66 3 1.32 3 2 C4.65 2 6.3 2 8 2 C8 2.33 8 2.66 8 3 C3.05 3.33 -1.9 3.66 -7 4 C-5 2 -5 2 -2.375 1.875 C-1.59125 1.91625 -0.8075 1.9575 0 2 C0 1.34 0 0.68 0 0 Z " fill="#0042B8" transform="translate(890,172)"/>
<path d="M0 0 C0.66 0.66 1.32 1.32 2 2 C1.195625 2.45375 0.39125 2.9075 -0.4375 3.375 C-3.08856572 4.74725665 -3.08856572 4.74725665 -4 7 C-4.99 7 -5.98 7 -7 7 C-6.67 5.68 -6.34 4.36 -6 3 C-5.34 3 -4.68 3 -4 3 C-2.63838689 2.03886134 -1.30144802 1.04115841 0 0 Z " fill="#0D52BE" transform="translate(880,158)"/>
<path d="M0 0 C0.33 0 0.66 0 1 0 C1 1.65 1 3.3 1 5 C-0.98 5.99 -0.98 5.99 -3 7 C-3 3.4833494 -2.23600438 2.59376508 0 0 Z " fill="#EDF4F9" transform="translate(992,192)"/>
</svg>
